# xmcd
#
# Track frame offsets:
#	150
#	13316
#	23456
#	37533
#	52650
#	68061
#	82224
#	97367
#	114553
#	129856
#	139921
#	158188
#	168685
#	184101
#	198503
#	213789
#	226239
#	243860
#	256816
#	265336
#
# Disc length: 3750 seconds
#
# Revision: 0
# Processed by: cddbd v1.5PL3 Copyright (c) Steve Scherf et al.
# Submitted via: dBpowerAMP V4.0
#
DISCID=0a0ea414
DTITLE=Sulo - Ei tule et minna - Kutse tantsule 23 
DYEAR=1900
DGENRE=
TTITLE0=Väike neiu
TTITLE1=Quando
TTITLE2=Naerata
TTITLE3=Ausus
TTITLE4=Alice
TTITLE5=Buenos Dias Argentina
TTITLE6=Amarillo
TTITLE7=California Blue
TTITLE8=Kallim
TTITLE9=Korraks vaid
TTITLE10=Lola
TTITLE11=Miks vaatad täis igatsust teele
TTITLE12=Mamie Blue
TTITLE13=Mustlase elu
TTITLE14=Pögenevad unenäod
TTITLE15=Rannapiiga
TTITLE16=Valged roosid
TTITLE17=Vanaisa kell
TTITLE18=Ütle miks
TTITLE19=Ei tule et minna
EXTD=
EXTT0=
EXTT1=
EXTT2=
EXTT3=
EXTT4=
EXTT5=
EXTT6=
EXTT7=
EXTT8=
EXTT9=
EXTT10=
EXTT11=
EXTT12=
EXTT13=
EXTT14=
EXTT15=
EXTT16=
EXTT17=
EXTT18=
EXTT19=
PLAYORDER=
